<svg xmlns="http://www.w3.org/2000/svg" xmlns:xlink="http://www.w3.org/1999/xlink" width="2616" zoomAndPan="magnify" viewBox="0 0 1962 745.499982" height="994" preserveAspectRatio="xMidYMid meet" version="1.0"><path fill="#000000" d="M 199.25 518.550781 C 115.878906 518.550781 79.59375 480.109375 79.59375 424.386719 L 79.59375 417.042969 L 125.382812 417.042969 L 125.382812 421.792969 C 125.382812 457.644531 140.5 475.789062 200.976562 475.789062 C 243.742188 475.789062 259.289062 464.125 259.289062 437.34375 C 259.289062 410.996094 250.652344 401.492188 206.160156 392.421875 L 156.917969 382.484375 C 107.242188 372.980469 80.460938 348.792969 80.460938 303.003906 C 80.460938 260.242188 113.71875 220.5 188.449219 220.5 C 268.363281 220.5 300.328125 265.425781 300.328125 316.828125 L 300.328125 322.011719 L 254.539062 322.011719 L 254.539062 317.257812 C 254.539062 281.839844 238.988281 263.265625 187.152344 263.265625 C 144.390625 263.265625 127.109375 275.359375 127.109375 300.84375 C 127.109375 327.195312 138.773438 334.539062 178.515625 343.175781 L 227.757812 353.542969 C 282.183594 364.773438 305.941406 391.988281 305.941406 435.617188 C 305.941406 480.972656 273.113281 518.550781 199.25 518.550781 Z M 386.078125 588.960938 L 339.859375 588.960938 L 339.859375 299.550781 L 382.191406 299.550781 L 382.191406 334.96875 L 384.351562 334.96875 C 394.285156 309.914062 418.90625 295.230469 456.054688 295.230469 C 516.53125 295.230469 549.792969 338.855469 549.792969 407.105469 C 549.792969 474.925781 517.394531 518.550781 459.078125 518.550781 C 420.636719 518.550781 396.878906 500.84375 387.375 480.972656 L 386.078125 480.972656 Z M 386.078125 426.113281 C 386.078125 461.964844 406.8125 478.8125 444.824219 478.8125 C 485.859375 478.8125 503.140625 459.804688 503.140625 407.105469 C 503.140625 353.976562 486.292969 334.96875 444.824219 334.96875 C 406.8125 334.96875 386.078125 351.816406 386.078125 387.667969 Z M 684.246094 518.550781 C 613.402344 518.550781 580.144531 473.628906 580.144531 406.675781 C 580.144531 340.152344 619.882812 295.230469 683.8125 295.230469 C 741.695312 295.230469 782.300781 329.785156 782.300781 388.53125 C 782.300781 399.761719 781.003906 411.425781 779.707031 417.90625 L 623.769531 417.90625 C 625.5 457.214844 639.753906 477.085938 684.675781 477.085938 C 720.53125 477.085938 734.351562 464.988281 734.351562 445.550781 L 734.351562 442.097656 L 780.574219 442.097656 L 780.574219 445.984375 C 780.574219 490.042969 742.128906 518.550781 684.246094 518.550781 Z M 682.949219 334.539062 C 642.34375 334.539062 626.792969 353.542969 624.203125 386.804688 L 737.808594 386.804688 C 739.535156 350.089844 719.667969 334.539062 682.949219 334.539062 Z M 866.183594 514.234375 L 819.527344 514.234375 L 819.527344 298.253906 L 862.292969 298.253906 L 862.292969 332.378906 L 864.453125 332.378906 C 873.09375 312.507812 892.964844 295.230469 924.496094 295.230469 C 969.421875 295.230469 986.699219 328.058594 986.699219 368.230469 L 986.699219 382.484375 L 940.046875 382.484375 L 940.046875 373.847656 C 940.046875 345.335938 931.839844 334.96875 904.625 334.96875 C 876.546875 334.96875 866.183594 345.769531 866.183594 374.277344 Z M 1070.214844 518.550781 C 1031.769531 518.550781 1001.964844 498.683594 1001.964844 461.101562 C 1001.964844 425.679688 1027.882812 407.105469 1073.671875 400.628906 L 1148.832031 389.398438 L 1148.832031 377.734375 C 1148.832031 345.769531 1134.144531 336.265625 1100.453125 336.265625 C 1066.328125 336.265625 1052.9375 347.066406 1052.9375 375.574219 L 1052.9375 382.054688 L 1008.011719 382.054688 L 1008.011719 377.734375 C 1008.011719 329.785156 1045.582031 295.230469 1103.042969 295.230469 C 1163.085938 295.230469 1193.324219 331.515625 1193.324219 383.78125 L 1193.324219 514.234375 L 1150.128906 514.234375 L 1150.128906 480.539062 L 1147.96875 480.539062 C 1135.441406 500.84375 1110.820312 518.550781 1070.214844 518.550781 Z M 1047.320312 457.644531 C 1047.320312 474.492188 1058.121094 481.402344 1085.335938 481.402344 C 1115.558594 481.402344 1148.832031 469.308594 1148.832031 426.113281 L 1148.832031 422.226562 L 1080.582031 432.59375 C 1055.960938 436.046875 1047.320312 441.664062 1047.320312 457.644531 Z M 1263.21875 514.234375 L 1210.519531 514.234375 L 1287.410156 406.242188 L 1287.410156 403.21875 L 1210.519531 299.550781 L 1264.933594 299.550781 L 1322.832031 379.03125 L 1325.855469 379.03125 L 1383.304688 299.550781 L 1435.992188 299.550781 L 1359.117188 404.945312 L 1359.117188 408.402344 L 1435.992188 514.234375 L 1381.578125 514.234375 L 1323.695312 432.160156 L 1320.671875 432.160156 Z M 1503.457031 519.417969 L 1503.457031 480.972656 L 1464.582031 480.972656 L 1464.582031 279.246094 L 1503.457031 279.246094 L 1503.457031 240.800781 L 1628.726562 240.800781 L 1628.726562 279.246094 L 1668.035156 279.246094 L 1668.035156 480.972656 L 1628.726562 480.972656 L 1628.726562 519.417969 Z M 1512.097656 471.035156 L 1620.085938 471.035156 L 1620.085938 289.613281 L 1512.097656 289.613281 Z M 1759.097656 519.417969 L 1759.097656 480.972656 L 1720.222656 480.972656 L 1720.222656 432.160156 L 1767.738281 432.160156 L 1767.738281 471.035156 L 1875.726562 471.035156 L 1875.726562 404.082031 L 1759.097656 404.082031 L 1759.097656 365.640625 L 1720.222656 365.640625 L 1720.222656 279.246094 L 1759.097656 279.246094 L 1759.097656 240.800781 L 1884.367188 240.800781 L 1884.367188 279.246094 L 1923.675781 279.246094 L 1923.675781 327.625 L 1875.726562 327.625 L 1875.726562 289.613281 L 1767.738281 289.613281 L 1767.738281 356.136719 L 1884.367188 356.136719 L 1884.367188 393.714844 L 1923.675781 393.714844 L 1923.675781 480.972656 L 1884.367188 480.972656 L 1884.367188 519.417969 Z M 1759.097656 519.417969 " fill-opacity="1" fill-rule="nonzero"/></svg>
